# xmcd
#
# Track frame offsets:
#	150
#	10455
#	27977
#	45137
#	68435
#	87470
#	108667
#	129520
#	147063
#	169520
#	196513
#
# Disc length: 2851 seconds
#
# Revision: 1
# Processed by: cddbd v1.5.1PL0 Copyright (c) Steve Scherf et al.
# Submitted via: CDex 1.50Beta5
#
DISCID=820b210b
DTITLE=JUICE - VIVA LA MUSICA
DYEAR=2003
DGENRE=Rock
TTITLE0=Introduction
TTITLE1=どんぴしゃ
TTITLE2=ヤングジェネレーション
TTITLE3=星に願いを
TTITLE4=HATO
TTITLE5=Go To The Next Door feat.HAB I SCREAM
TTITLE6=ムードメーカー feat.KOJI&EIJI
TTITLE7=KOBA DA BEAT feat.YoHEI
TTITLE8=真っ赤な情熱
TTITLE9=バイバイサイナラ
TTITLE10=見えない音
EXTD=
EXTT0=
EXTT1=
EXTT2=
EXTT3=
EXTT4=
EXTT5=
EXTT6=
EXTT7=
EXTT8=
EXTT9=
EXTT10=
PLAYORDER=
